<?xml version="1.0" encoding="utf-8"?>
<!-- Generator: Adobe Illustrator 16.0.0, SVG Export Plug-In . SVG Version: 6.00 Build 0)  -->
<!DOCTYPE svg PUBLIC "-//W3C//DTD SVG 1.1//EN" "http://www.w3.org/Graphics/SVG/1.1/DTD/svg11.dtd">
<svg version="1.1" id="Calque_1" xmlns="http://www.w3.org/2000/svg" xmlns:xlink="http://www.w3.org/1999/xlink" x="0px" y="0px"
	 width="253.373px" height="253.373px" viewBox="0 0 253.373 253.373" enable-background="new 0 0 253.373 253.373"
	 xml:space="preserve">
<g>
	<g>
		<path fill="#40567C" d="M106.51,11.278c-0.313,4.846-2.879,8.42-2.584,13.502c0.169,2.914,2.745,5.124,5.696,4.339
			c4.09-1.087,7.842,0.193,12.251-1.168c-1.899-1.446-3.797-2.893-5.696-4.339c-1.131,10.013-2.646,19.974-3.667,30
			c-0.194,1.905,1.509,3.925,3.304,4.339c9.407,2.174,10.567-10.077,15.045-15.157c-2.355-1.818-4.711-3.636-7.067-5.453
			c-4.598,6.781-7.241,12.811-8.621,20.91c-0.762,4.471,3.974,7.436,7.521,4.378c2.257-1.946,4.05-2.506,6.759-3.359
			c3.012-0.949,5.362-3.162,7.49-5.391c-2.507-0.662-5.014-1.324-7.521-1.986c0.989,4.558-1.29,8.804-3.015,12.903
			c-2.083,4.954-2.808,9.692-2.068,15.014c0.363,2.611,3.375,3.492,5.536,3.143c5.56-0.899,26.256-2.378,23.348-12.732
			c-0.78-2.775-3.488-4.493-5.773-5.941c-1.036-0.657-2.082-1.293-3.075-2.016c-0.669-0.487,0.676,0.515,0.226,1.63
			c-2.893,0-5.785,0-8.678,0c1.121,5.016-0.747,10.108-2.216,14.866c-1.638,5.309-3.172,10.587-3.195,16.188
			c-0.008,1.822,1.362,4.043,3.304,4.339c10.243,1.563,19.589-8.609,23.457-17.318c-2.795-0.757-5.591-1.515-8.386-2.271
			c-0.911,8.597-3.918,16.679-5.88,25.054c-0.729,3.111,1.401,5.328,4.339,5.696c8.427,1.058,10.352-7.816,15.223-12.443
			c-2.507-1.459-5.014-2.919-7.521-4.378c-0.643,3.701-2.868,6.86-3.405,10.635c-0.904,6.363,1.633,12.121,5.151,17.291
			c3.244,4.768,11.047,0.271,7.771-4.542c-2.74-4.027-5.007-8.15-3.688-13.082c0.728-2.722,2.363-5.113,2.849-7.91
			c0.749-4.314-4.061-7.665-7.521-4.378c-2.366,2.247-5.465,10.233-8.859,9.807c1.446,1.899,2.893,3.797,4.339,5.696
			c2.157-9.208,5.2-17.99,6.202-27.446c0.462-4.363-6.6-6.292-8.386-2.271c-1.787,4.023-8.131,13.97-13.293,13.182
			c1.102,1.446,2.202,2.893,3.304,4.339c0.048-11.526,7.721-21.682,5.089-33.446c-1.07-4.786-7.162-3.758-8.678,0
			c-2.153,5.338,4.187,8.738,7.764,11.048c0.841,0.542,1.428,1.142,1.046,0.634c-0.82-1.092,1.632-3.797-0.278-2.785
			c-4.871,2.583-11.644,3.014-16.971,3.876c1.845,1.048,3.69,2.095,5.535,3.143c-0.668-4.806,1.709-9.343,3.506-13.64
			c1.954-4.673,2.657-9.297,1.576-14.276c-0.718-3.308-5.263-4.35-7.521-1.986c-2.104,2.203-3.468,3.061-6.291,3.828
			c-3.08,0.837-5.593,2.883-7.959,4.922c2.507,1.459,5.014,2.919,7.521,4.378c1.265-7.421,3.5-12.546,7.714-18.761
			c2.869-4.231-3.696-9.277-7.068-5.453c-1.785,2.025-2.976,4.321-4.153,6.732c-0.659,1.35-1.318,2.695-2.026,4.02
			c-0.327,0.599-0.681,1.183-1.061,1.75c-0.766,0.692-0.449,0.806,0.951,0.341c1.101,1.446,2.203,2.893,3.304,4.339
			c1.021-10.026,2.536-19.987,3.667-30c0.328-2.9-3.121-5.135-5.696-4.339c-4.058,1.253-7.854,0-12.251,1.168
			c1.899,1.446,3.797,2.893,5.696,4.339c-0.274-4.708,2.273-8.689,2.584-13.502C115.884,5.48,106.882,5.516,106.51,11.278
			L106.51,11.278z"/>
	</g>
</g>
<g>
	<g>
		<path d="M165.488,100.103c-3.196-21.335-17.652-36.71-27.895-54.851c-9.317-16.503-16.915-33.527-36.211-39.991
			c-1.075-0.36-2.672,0.408-2.835,1.61c-1.088,8.012,3.971,15.807,8.01,22.308c5.517,8.879,12.292,17.131,16.811,26.597
			c1.207-0.931,2.414-1.862,3.621-2.793c-6.571-6.26-15.526-10.939-24.78-8.789c-1.593,0.37-1.931,2.087-1.378,3.386
			c3.107,7.295,9.908,10.38,16.128,14.588c7.796,5.275,11.133,16.61,17.015,23.786c1.087-1.086,2.173-2.173,3.26-3.26
			c-3.705-4.388-9.283-6.596-14.948-6.823c-1.283-0.051-2.271,1.088-2.305,2.305c-0.265,9.273,8.152,16.154,14.543,21.617
			c8.221,7.027,19.104,14.24,22.422,25.1c0.619,2.026,4.033,2.372,4.445,0c1.366-7.855,2.732-15.709,4.098-23.564
			c0.506-2.907-3.937-4.151-4.445-1.226c-1.366,7.855-2.732,15.709-4.098,23.564c1.481,0,2.964,0,4.445,0
			c-3.021-9.89-11.402-16.867-19.034-23.291c-6.354-5.348-18.035-12.747-17.766-22.2c-0.769,0.769-1.537,1.537-2.305,2.305
			c4.518,0.181,8.751,1.995,11.688,5.472c1.929,2.285,5.121-0.989,3.26-3.26c-5.8-7.076-9.047-15.851-15.367-22.541
			c-5.501-5.824-13.625-6.846-17.055-14.901c-0.459,1.129-0.918,2.258-1.378,3.386c7.566-1.757,14.987,2.548,20.294,7.604
			c1.971,1.877,4.727-0.476,3.621-2.793c-3.738-7.831-9.092-14.854-13.877-22.057c-4.047-6.091-11.547-15.433-10.479-23.295
			c-0.945,0.537-1.89,1.073-2.835,1.61c18.942,6.345,25.736,24.646,34.983,40.537c9.809,16.856,22.908,31.099,25.903,51.086
			C161.482,104.261,165.923,103.01,165.488,100.103z"/>
	</g>
</g>
<g>
	<g>
		<g>
			<path fill="#C19529" d="M31.92,118c-1.83,6.168-0.933,11.146-0.657,17.413c0.169,3.838,4.819,6.065,7.682,3.182
				c4.421-4.452,9.4-7.794,13.2-12.877c-2.742-1.156-5.483-2.312-8.225-3.468c-1.544,6.441-3.928,12.536-4.411,19.196
				c-0.357,4.928,5.998,5.502,8.386,2.271c2.968-4.016,3.979-8.446,4.712-13.3c0.381-2.526,0.958-4.964,1.617-7.43
				c0.035-0.131-2.058,3.203,0.082,0.478c0.71-0.905,1.294-1.726,1.839-2.749c-2.59,0-5.181,0-7.771,0
				c1.98,4.078,1.426,7.766,0.752,12.066c-0.71,4.53-0.547,8.774,1.044,13.108c0.815,2.221,3.057,3.942,5.536,3.143
				c4.914-1.584,7.501-4.972,9.39-9.613c1.005-2.472,1.425-5.207,1.939-7.811c0.212-1.074,0.442-2.142,0.692-3.207
				c0.156-0.644,0.34-1.278,0.55-1.906c-3.866-1.468-4.985-0.92-3.357,1.645c1.95,5.418,10.649,3.082,8.679-2.393
				c-1.298-3.608-2.492-6.596-6.188-8.126c-3.662-1.516-6.479,2.936-7.491,5.626c-1.668,4.433-1.283,15.39-6.607,17.107
				c1.845,1.047,3.69,2.095,5.536,3.143c-1.682-4.58-0.931-8.45-0.307-13.13c0.684-5.123-0.144-9.554-2.397-14.195
				c-1.467-3.022-6.253-2.847-7.771,0c-0.407,0.764-1.478,1.589-2.074,2.606c-1.077,1.838-1.428,4.239-1.871,6.282
				c-1.096,5.061-1.107,9.785-4.306,14.112c2.795,0.758,5.59,1.515,8.386,2.271c0.418-5.771,2.749-11.212,4.089-16.804
				c1.255-5.238-5.265-7.428-8.225-3.468c-3.262,4.365-7.984,7.221-11.792,11.057c2.561,1.061,5.122,2.121,7.682,3.182
				c-0.238-5.401-1.233-9.733,0.335-15.021C42.253,114.815,33.567,112.45,31.92,118L31.92,118z"/>
		</g>
	</g>
	<g>
		<g>
			<path fill="#C19529" d="M89.989,96.311c-3.839,2.011-7.979,3.524-11.593,5.938c-4.008,2.678-6.272,6.603-7.976,11.001
				c-1.489,3.847,3.449,6.909,6.61,5.082c10.169-5.876,20.396-11.049,31.372-15.259c-1.694-2.204-3.388-4.407-5.082-6.611
				c-9.09,13.494-23.974,21.297-34.034,33.969c-3.131,3.943,0.681,9.476,5.453,7.067c19.19-9.685,37.232-22.079,58.259-27.546
				c-1.694-2.204-3.388-4.407-5.082-6.61c-13.39,24.341-36.821,38.188-61.678,48.719c2.203,1.694,4.407,3.388,6.61,5.082
				c3.694-16.704,18.761-27.873,32.082-37.059c5.31-3.662,10.712-7.206,16.115-10.729c0.301-0.197,1.642-0.74,0.354-0.274
				c0.563-0.204,1.185-0.278,1.769-0.387c3.105-0.583,6.158-1.39,9.203-2.228c-1.459-2.507-2.919-5.014-4.378-7.521
				c-3.726,4.538-6.977,9.185-9.676,14.393c-2.461,4.748-7.106,7.52-11.454,10.39c-4.809,3.174-0.526,10.696,4.542,7.771
				c13.574-7.834,26.857-17.792,43.063-18.718c-1.446-1.101-2.893-2.203-4.339-3.304c0.852,5.079-8.368,10.727-11.683,13.001
				c-6.04,4.144-12.57,7.55-19.063,10.915c-7.337,3.801-14.173,8.473-21.731,11.862c-8.553,3.836-17.934,4.185-27.142,3.691
				c1.446,1.898,2.893,3.798,4.339,5.696c2.199-6.795,2.659-14.688,5.979-21.044c2.819-5.396,8.424-9.146,13.263-12.632
				c5.395-3.887,11.324-8.15,17.805-9.948c0.348-0.097,1.493-0.266,1.637-0.187c-0.22-0.122,0.163,0.483-0.001,0.016
				c0.05,0.143,0.11,0.795,0.108,0.813c-0.137,0.934-0.432,1.916-0.81,2.778c-4.884,11.137-15.525,20.349-24.129,28.575
				c-7.187,6.871-15.002,13.111-22.079,20.085c-3.065,3.021,0.023,9.104,4.378,7.521c19.339-7.029,36.377-17.722,53.032-29.627
				c13.615-9.731,27.382-20.006,44.175-23.207c-1.694-2.204-3.388-4.407-5.082-6.611c-4.032,6.641-9.202,11.226-15.524,15.607
				c-7.138,4.947-14.103,10.137-21.266,15.049c-15.395,10.558-31.917,20.306-50.394,24.11c1.694,2.203,3.388,4.406,5.082,6.61
				c3.513-6.54,10.287-10.442,16.65-13.798c7.227-3.812,14.926-6.627,22.502-9.646c20.997-8.366,41.896-16.729,64.157-21.155
				c-1.459-2.507-2.919-5.014-4.378-7.521c-15.938,15.586-37.818,23.388-57.863,32.161c-16.868,7.384-33.128,15.351-48.807,25.015
				c-4.971,3.063-0.617,10.374,4.542,7.771c19.002-9.586,38.575-17.462,59.154-22.945c21.004-5.596,42.497-9.286,63.728-13.897
				c-1.459-2.507-2.919-5.014-4.378-7.521c-14.033,13.177-31.449,21.639-47.619,31.809c-16.726,10.521-32.639,23.089-51.437,29.784
				c1.845,1.845,3.69,3.69,5.536,5.535c2.682-13.244,21.284-19.945,32.269-24.067c13.75-5.158,28.163-8.765,42.588-11.456
				c-1.156-2.741-2.312-5.482-3.468-8.225c-15.832,10.651-33.064,18.938-50.507,26.579c-5.873,2.572-11.521,6.042-17.488,8.335
				c-5.029,1.933-11.619-0.719-16.517-1.857c1.101,1.446,2.203,2.893,3.304,4.339c-0.241-4.393-0.674-9.257-3.234-13.003
				c-3.428-5.017,0.712,3.509-2.994,4.911c1.563-0.591,3.104-1.222,4.63-1.901c16.668-7.427,33.415-14.715,50.014-22.299
				c5.304-2.423,0.693-10.062-4.543-7.771c-13.682,5.982-26.242,14.305-40.257,19.547c1.459,2.507,2.919,5.014,4.378,7.521
				c12.345-10.218,32.024-10.588,47.17-12.437c7.896-0.964,15.861-2.054,23.495-4.364c5.198-1.573,9.804-4.571,15.056-6.208
				c-0.798-2.893-1.595-5.785-2.393-8.678c-7.293,2.325-13.243,5.975-18.581,11.436c-5.326,5.45-10.081,8.269-17.794,9.398
				c1.845,1.845,3.69,3.69,5.535,5.535c3.03-9.827,10.611-17.497,18.178-24.099c8.01-6.987,17.112-12.792,26.423-17.88
				c4.397-2.403,1.332-10.135-3.468-8.225c-18.529,7.373-36.078,17.199-55.334,22.668c1.459,2.507,2.919,5.014,4.378,7.521
				c6.102-7.24,13.552-12.974,21.09-18.63c-1.818-2.356-3.636-4.712-5.453-7.067c-21.341,25.961-42.799,51.339-67.709,74
				c-3.319,3.019,0.131,8.874,4.378,7.521c15.607-4.973,28.881-12.963,42.076-22.468c13.633-9.821,27.462-16.303,44.174-19.032
				c-1.694-2.203-3.388-4.406-5.082-6.61c-9.702,17.199-29.466,28.081-46.261,37.22c1.818,2.356,3.636,4.712,5.453,7.067
				c12.476-12.508,25.96-28.303,44.015-32.177c-1.694-2.203-3.388-4.406-5.082-6.61c-5.934,11.677-20.591,17.148-31.374,23.337
				c-13.84,7.941-28.304,14.328-43.061,20.346c1.459,2.507,2.919,5.014,4.378,7.521c13.244-13.422,32.068-15.947,49.139-21.927
				c-1.156-2.741-2.312-5.482-3.468-8.225c-13.591,5.93-29.549,9.632-39.576,21.372c-1.985,2.324-1.624,6.876,1.986,7.521
				c22.776,4.068,40.308-14.435,60.183-21.834c-1.156-2.741-2.312-5.482-3.468-8.225c-13.508,9.228-24.022,23.71-39.382,30.047
				c1.694,2.203,3.388,4.406,5.082,6.61c6.656-9.864,17.984-17.228,30.071-17.521c-0.757-2.795-1.514-5.591-2.271-8.386
				c-9.532,6.529-20.11,8.548-31.148,11.1c-10.723,2.478-20.096,7.156-27.651,15.28c-3.247,3.491,0.038,8.252,4.378,7.521
				c17.993-3.031,35.135-8.154,52.639-13.176c5.568-1.597,3.203-10.267-2.393-8.678c-7.613,2.161-15.495,3.391-22.96,6.058
				c-7.793,2.783-13.821,7.669-18.729,14.26c-2.014,2.705,0.69,6.977,3.886,6.771c11.541-0.739,21.482-4.079,31.896-8.948
				c4.605-2.153,1.305-10.001-3.468-8.225c-5.672,2.11-11.562,4.054-16.407,7.787c-2.824,2.177-3.136,7.241,1.075,8.225
				c3.417,0.798,5.541-0.983,7.052-3.813c0.309-0.577,0.56-0.82,2.187-1.344c3.604-1.16,7.7-0.849,11.415-0.682
				c-0.757-2.795-1.514-5.591-2.271-8.386c0.669-0.164,1.337-0.329,2.006-0.493c1.295,2.257,2.591,4.514,3.886,6.771
				c-0.899,1.429,1.278-1.167,1.714-1.603c1.237-1.239,2.47-2.489,3.56-3.862c2.316-2.919,2.786-7.508-1.697-8.767
				c-5.599-1.572-7.972,7.111-2.393,8.678c0.069,0.02,0.138,0.039,0.207,0.059c-1.048-1.048-2.096-2.096-3.144-3.144
				c-0.803-2.261,1.214-3.717-0.661-1.641c-0.719,0.796-1.481,1.552-2.236,2.313c-1.072,1.082-2.302,2.123-3.121,3.424
				c-1.897,3.014,0.611,6.628,3.886,6.771c0.915,0.04,1.767-0.275,2.537-0.735c3.949-2.359,2.14-8.188-2.271-8.386
				c-5.826-0.261-12.695-0.464-17.844,2.786c-1.393,0.879-2.456,2.052-3.36,3.412c-2.138,3.215,0.959-0.501,2.943-0.037
				c0.358,2.741,0.717,5.482,1.075,8.225c4.268-3.288,9.26-5.021,14.257-6.881c-1.156-2.741-2.312-5.482-3.468-8.225
				c-8.926,4.174-17.463,7.087-27.353,7.72c1.295,2.257,2.59,4.514,3.886,6.771c8.721-11.713,23.298-12.488,36.31-16.183
				c-0.798-2.893-1.595-5.785-2.393-8.678c-17.504,5.021-34.646,10.144-52.639,13.176c1.459,2.507,2.919,5.014,4.378,7.521
				c7.71-8.29,16.96-11.524,27.75-13.878c10.417-2.272,20.319-4.992,29.229-11.094c3.507-2.402,2.475-8.501-2.271-8.386
				c-15.39,0.374-29.37,9.423-37.843,21.979c-2.081,3.084,1.416,8.123,5.082,6.61c16.444-6.783,27.147-21.127,41.532-30.953
				c3.971-2.713,1.585-10.105-3.468-8.225c-9.523,3.545-18.106,8.957-26.951,13.874c-8.52,4.736-18.403,9.754-28.447,7.96
				c0.662,2.507,1.324,5.014,1.986,7.521c9.396-11.002,24.992-14.396,37.755-19.964c4.677-2.041,1.316-9.9-3.468-8.225
				c-18.674,6.541-38.625,9.561-53.11,24.241c-2.937,2.977,0.004,9.305,4.378,7.521c16.09-6.561,31.779-13.545,46.868-22.203
				c11.801-6.772,26.447-12.827,32.946-25.614c1.827-3.596-1.134-7.458-5.082-6.61c-19.646,4.215-34.402,20.873-47.985,34.491
				c-3.672,3.682,0.991,9.495,5.453,7.067c18.173-9.889,39.004-21.863,49.489-40.448c2.091-3.707-1.314-7.226-5.082-6.61
				c-16.099,2.628-30.27,8.635-43.574,17.977c-13.637,9.576-26.603,18.401-42.675,23.523c1.459,2.507,2.919,5.014,4.378,7.521
				c24.909-22.66,46.368-48.038,67.708-74c2.991-3.638-1.064-10.36-5.453-7.067c-8.136,6.105-16.32,12.218-22.91,20.038
				c-2.768,3.283-0.237,8.831,4.378,7.521c19.272-5.473,36.797-15.291,55.334-22.668c-1.156-2.741-2.312-5.482-3.468-8.225
				c-19.008,10.388-42.007,25.531-48.735,47.357c-1.114,3.613,2.355,6.001,5.535,5.535c7.405-1.084,13.652-3.783,19.075-8.968
				c5.477-5.234,9.828-9.483,17.3-11.866c5.504-1.755,3.169-10.411-2.393-8.678c-5.265,1.64-9.919,4.494-15.056,6.207
				c-8.028,2.678-16.75,3.526-25.108,4.526c-16.784,2.01-35.966,3.364-49.529,14.59c-3.422,2.832,0.228,9.073,4.378,7.521
				c14.767-5.522,28.001-14.154,42.407-20.453c-1.515-2.591-3.028-5.181-4.543-7.771c-16.911,7.727-33.908,15.828-51.143,22.785
				c-2.841,1.147-7.645,3.722-4.745,7.637c1.902,2.567,2.765,5.106,3.014,9.642c0.107,1.951,1.286,3.87,3.304,4.339
				c5.953,1.385,12.572,3.552,18.75,2.506c5.588-0.946,10.82-4.68,15.847-7.094c19.357-9.296,38.928-17.318,56.85-29.375
				c4.335-2.917,1.561-9.163-3.468-8.225c-15.6,2.909-31.111,6.937-45.9,12.725c-13.197,5.165-32.077,13.454-35.243,29.084
				c-0.626,3.092,2.066,6.771,5.536,5.535c19.585-6.975,36.214-19.627,53.587-30.69c16.809-10.704,34.789-19.46,49.439-33.217
				c3.456-3.245-0.178-8.433-4.378-7.521c-21.238,4.612-42.695,8.385-63.728,13.897c-21.314,5.586-41.655,13.94-61.303,23.852
				c1.514,2.591,3.028,5.181,4.542,7.771c15.691-9.672,31.953-17.575,48.808-25.015c20.844-9.2,43.083-17.335,59.684-33.568
				c3.405-3.329-0.144-8.363-4.378-7.521c-23.003,4.574-44.504,13.388-66.215,21.973c-14.688,5.808-34.464,11.852-42.474,26.763
				c-1.938,3.608,1.21,7.408,5.082,6.61c19.806-4.077,37.498-14.698,53.979-26.001c7.421-5.089,14.66-10.439,22.033-15.599
				c6.778-4.743,12.24-10.204,16.551-17.302c2.192-3.61-1.386-7.315-5.082-6.611c-16.235,3.094-29.938,12.421-43.153,21.846
				c-17.065,12.171-34.211,23.775-54.054,30.988c1.459,2.507,2.919,5.014,4.378,7.521c8.544-8.419,17.953-15.947,26.506-24.381
				c5.64-5.562,11.012-11.372,15.828-17.666c3.487-4.558,6.741-9.711,7.278-15.546c0.52-5.649-4.233-10.097-9.668-10.05
				c-7.725,0.066-15.698,6.044-21.753,10.228c-6.303,4.355-12.665,9.029-17.109,15.354c-4.947,7.04-5.309,16.857-7.895,24.85
				c-0.944,2.917,1.545,5.547,4.339,5.696c10.524,0.563,20.791-0.28,30.564-4.443c8.807-3.75,16.77-9.169,25.243-13.581
				c7.789-4.056,15.373-8.414,22.309-13.825c5.938-4.632,11.524-11.013,10.182-19.013c-0.313-1.868-2.506-3.409-4.339-3.304
				c-18.052,1.032-32.451,11.201-47.604,19.947c1.514,2.59,3.028,5.181,4.542,7.771c4.972-3.282,10.167-6.618,13.549-11.639
				c3.273-4.859,5.617-9.941,9.402-14.551c2.722-3.314,0.274-8.803-4.378-7.521c-4.12,1.135-9.362,1.417-13.14,3.588
				c-6.469,3.718-12.647,8.278-18.766,12.542c-14.482,10.092-29.903,22.745-33.903,40.833c-0.92,4.163,3.02,6.604,6.61,5.082
				c26.263-11.127,50.793-26.29,64.907-51.948c1.905-3.464-1.204-7.619-5.082-6.61c-21.796,5.667-40.521,18.417-60.409,28.453
				c1.817,2.356,3.635,4.712,5.453,7.067c10.567-13.31,25.856-21.562,35.441-35.789c2.114-3.139-1.413-8.019-5.082-6.611
				c-11.705,4.49-22.672,9.898-33.521,16.167c2.203,1.694,4.407,3.388,6.61,5.082c2.642-6.824,9.467-8.436,15.432-11.561
				C99.673,101.388,95.124,93.621,89.989,96.311L89.989,96.311z"/>
		</g>
	</g>
	<g>
		<g>
			<path fill="#C19529" d="M180.119,133.862c3.962,3.614,8.224,6.745,13.051,9.107c2.389,1.169,6.066,0.364,6.61-2.689
				c1.688-9.467-5.46-13.248-9.385-20.729c-2.356,1.818-4.712,3.636-7.067,5.454c7.842,7.184,14.917,15.877,25.36,19.282
				c2.215,0.723,5.064-0.817,5.535-3.143c1.932-9.535-4.06-18.875-12.315-23.349c-2.757-1.494-5.535-0.043-6.61,2.689
				c-3.239,8.23,2.455,12.79,5.357,19.858c1.885,4.591,8.556,4.143,8.839-1.196c0.28-5.279-1.343-10.216-3.132-15.113
				c-2.507,1.459-5.014,2.919-7.521,4.378c3.23,3.641,5.927,7.373,9.902,10.264c2.942,2.139,6.622-0.795,6.771-3.886
				c0.291-6.038,1.146-11.071-1.87-16.613c-1.295,2.257-2.591,4.515-3.886,6.771c1.335-0.167-1.105-1.813-0.842-0.703
				c0.185,0.779,0.024,1.816,0.002,2.611c-0.07,2.44-0.347,4.869-0.412,7.311c-0.118,4.43,0.879,9.526,5.23,11.667
				c3.082,1.517,6.649-0.323,6.771-3.886c0.271-7.864,15.08-16.817,4.521-24.136c-3.874-2.685-8.24,2.438-6.157,6.157
				c0.976,1.742-0.471,2.934-1.089,4.682c-0.993,2.806-0.784,5.561,0.308,8.302c2.203-1.694,4.406-3.388,6.61-5.082
				c-3.75-2.121-4.968-5.929-8.137-8.855c-2.056-1.898-5.651-1.738-7.067,0.911c-1.331,2.489-3.315,5.373-2.392,8.326
				c0.839,2.68,3.828,3.678,5.654,5.558c1.882,1.938,5.842,1.735,7.067-0.91c1.307-2.82,2.621-5.443,2.991-8.549
				c0.351-2.933-2.109-5.754-3.675-7.925c-3.361-4.659-11.174-0.174-7.771,4.543c2.74,3.799,2.686,3.067,0.684,7.388
				c2.356-0.304,4.712-0.606,7.067-0.91c-1.107-1.142-2.262-2.106-3.556-3.028c-0.392-0.247-0.79-0.484-1.194-0.71
				c0.51,1.116,1.02,2.232,1.529,3.349c0.444-0.868,0.9-1.73,1.366-2.588c-2.356,0.304-4.712,0.606-7.067,0.91
				c1.685,1.556,2.615,2.948,3.67,4.92c1.315,2.462,3.951,4.021,6.287,5.343c3.14,1.775,8.151-1.213,6.61-5.082
				c-1.134-2.849,0.178-3.749,1.063-6.416c1.032-3.109,0.375-5.926-1.188-8.718c-2.053,2.053-4.104,4.105-6.157,6.157
				c-0.414-1.958-0.725-2.274-0.93-0.948c-0.225,0.794-0.785,1.565-1.19,2.271c-0.917,1.594-1.968,3.115-2.955,4.665
				c-2.023,3.176-3.771,6.548-3.903,10.377c2.257-1.295,4.514-2.591,6.771-3.886c-0.868-0.427-0.245,0.39-0.604-0.93
				c-0.329-1.214-0.179-2.634-0.146-3.877c0.072-2.689,0.409-5.36,0.413-8.053c0.006-4.832-2.599-9.951-8.186-9.255
				c-3.343,0.417-5.661,3.509-3.886,6.771c2.042,3.751,0.838,7.998,0.642,12.07c2.257-1.295,4.514-2.591,6.771-3.886
				c-3.239-2.354-5.451-5.893-8.082-8.856c-2.923-3.293-9.063,0.153-7.521,4.378c1.515,4.149,3.048,8.242,2.81,12.721
				c2.946-0.398,5.893-0.798,8.839-1.196c-1.959-4.772-7.419-9.834-5.357-15.073c-2.203,0.896-4.406,1.793-6.61,2.689
				c4.428,2.399,9.294,7.688,8.181,13.185c1.845-1.048,3.69-2.096,5.535-3.143c-8.704-2.839-14.855-10.982-21.39-16.968
				c-3.806-3.486-9.463,0.887-7.067,5.454c2.054,3.914,9.303,9.166,8.479,13.794c2.203-0.896,4.406-1.793,6.61-2.689
				c-4.158-2.034-7.811-4.58-11.23-7.699C182.205,123.596,175.822,129.943,180.119,133.862L180.119,133.862z"/>
		</g>
	</g>
</g>
<g>
	<g>
		<path fill="#40567C" d="M106.739,99.395c-2.68,1.658-5.467,3.456-6.359,6.661c-0.295,1.061-0.155,2.173,0.1,3.22
			c0.189,0.488,0.39,0.972,0.602,1.451c-0.62-1.434,1.615-3.777-0.343-2.415c2.052,2.052,4.104,4.104,6.157,6.157
			c1.569-3.364,2.86-6.761,2.526-10.535c-0.296-3.354-0.395-3.977,2.104-6.805c3.393-3.841-0.84-9.479-5.454-7.068
			c-3.864,2.02-7.69,4.319-10.056,8.095c-0.561,0.894-0.93,1.998-1.121,3.035c-0.118,0.641-0.185,1.319-0.243,1.974
			c0.081-0.922,2.519-2.761,1.169-2.187c2.257,1.295,4.515,2.59,6.771,3.886c0.071-3.558,0.781-6.685,1.881-10.054
			c0.827-2.531-1.468-6.079-4.339-5.696c-4.674,0.623-8.098,2.335-12.396,4.048c1.694,2.204,3.388,4.407,5.082,6.611
			c2.921-5.955,5.214-12.136,7.653-18.295c1.504-3.799-3.472-6.972-6.611-5.082c-3.636,2.19-7.133,4.464-10.244,7.37
			c-3.116,2.911,0.111,9.284,4.378,7.521c3.219-1.33,6.955-1.989,9.949-3.799c3.513-2.122,4.76-6.619,5.992-10.245
			c1.417-4.169-3.347-6.491-6.611-5.082c-1.82,0.786-4.265,0.859-5.727,2.321c-1.617,1.617-1.766,4.55-2.473,6.603
			c2.946,0.399,5.893,0.797,8.839,1.196c-0.543-13.626-15.204-8.313-22.229-3.219c1.817,2.356,3.635,4.712,5.453,7.068
			c7.414-5.763,8.653-15.458,12.162-23.578c1.498-3.466-0.922-7.713-5.082-6.61c-7.137,1.892-7.722,7.583-12.444,12.157
			c-4.272,4.14,1.937,9.874,6.364,6.364c6.7-5.311,3.1-12.776,5.616-19.653c1.527-4.174-3.416-6.448-6.611-5.082
			c-4.481,1.916-7.032,5.455-10.792,8.333c2.052,2.052,4.104,4.104,6.157,6.157c4.141-5.554,3.507-12.056,4.073-18.604
			c0.446-5.156-7.552-5.993-8.839-1.196c-0.37,1.378-0.729,2.595-1.434,3.835c-0.231,0.406,0.385-0.003,0.033-0.087
			c-1.509-0.359-3.009-1.75-4.25-2.631c-2.493-1.768-5.848-3.489-8.739-1.473c-4.228,2.948-1.627,9.229,3.467,8.225
			c8.102-1.596,18.205-3.384,20.769-12.56c1.359-4.864-5.814-8.037-8.225-3.467c-0.297,0.605-0.622,1.196-0.973,1.772
			c2.818-3.558,4.932,1.65,3.498-0.272c-0.727-0.975-1.435-1.958-2.313-2.802c-2.554-2.455-5.886-2.425-8.889-0.896
			c2.203,1.694,4.407,3.388,6.61,5.082c0.615-3.927,1.504-7.652,3.213-11.258c1.403-2.961-0.236-6.833-3.886-6.771
			c-7.594,0.13-11.421,3.001-15.886,8.896c-3.227,4.26,3.469,8.703,7.068,5.453c3.139-2.836,7.144-5.677,6.507-10.38
			c-0.119-0.875-0.995-2.547-1.039-2.664c-0.874-2.36-0.519-5.187-0.186-7.608c0.426-3.097-1.911-6.762-5.536-5.536
			c-6.545,2.214-10.796,6.63-11.304,13.673c-0.101,1.402,0.896,3.317,2.229,3.886c3.642,1.555,7.96,4.222,11.897,2.167
			c3.564-1.86,2.62-7.006,2.584-10.218c-1.899,1.446-3.797,2.893-5.696,4.339c1.642,0.664,3.271,1.344,4.874,2.098
			c2.615,1.23,0.902,1.536,0.006-1.389c0.386-1.459,0.771-2.919,1.157-4.378c0.916-0.946,3.646-1.126,3.031-1.269
			c-0.684-0.159-1.354-0.387-2.02-0.606c-1.518-0.5-2.987-1.116-4.436-1.788c-2.184-1.014-6.94-3.03-7.58-5.371
			c-1.527-5.592-10.21-3.215-8.679,2.393c1.53,5.603,7.579,8.829,12.458,11.094c3.361,1.561,10.264,5.348,13.589,1.912
			c1.096-1.133,1.63-2.836,1.157-4.378c-1.26-4.111-7.758-5.617-11.166-6.995c-2.747-1.11-5.726,1.663-5.696,4.339
			c0.014,1.274,0.289,3.712,0.157,4.508c0.537-3.253,5.152-1.926,2.565-2.75c-1.246-0.396-2.464-0.967-3.662-1.479
			c0.743,1.295,1.486,2.59,2.229,3.886c0.205-2.836,2.205-4.151,4.696-4.994c-1.845-1.845-3.69-3.69-5.536-5.536
			c-0.653,4.752-1.1,9.433,0.816,13.944c0.159,0.375,0.328,0.743,0.505,1.11c-0.157-0.326,0.559-3.317-0.058-2.313
			c-0.613,0.999-3.03,2.854-4.231,3.939c2.356,1.818,4.712,3.636,7.068,5.453c2.499-3.298,3.935-4.366,8.114-4.438
			c-1.295-2.257-2.59-4.514-3.886-6.771c-2.053,4.334-3.378,8.668-4.12,13.408c-0.61,3.896,2.857,6.993,6.61,5.082
			c-1.053,0.537-2.208-0.811-1.172,0.376c0.39,0.447,0.772,1.044,1.13,1.493c0.851,1.065,2.062,2.238,3.456,2.517
			c4.229,0.844,6.674-1.97,8.493-5.417c-2.742-1.156-5.483-2.312-8.225-3.467c-1.382,4.946-10.322,5.454-14.483,6.273
			c1.156,2.742,2.312,5.483,3.467,8.225c-2.669-0.372-3.358-0.261-2.065,0.33c0.382,0.228,0.755,0.468,1.12,0.723
			c0.851,0.571,1.674,1.183,2.521,1.759c1.906,1.298,4.05,2.281,6.356,2.521c6.238,0.65,9.223-5.244,10.595-10.356
			c-2.946-0.399-5.893-0.797-8.839-1.196c-0.428,4.953,0.282,9.869-2.845,14.063c-2.636,3.535,2.624,8.861,6.157,6.157
			c3.66-2.802,6.5-6.499,10.792-8.333c-2.204-1.694-4.407-3.388-6.611-5.082c-1.717,4.692,0.766,12.458-3.301,15.681
			c2.122,2.122,4.243,4.243,6.364,6.364c2.884-2.795,4.567-8.808,8.473-9.843c-1.694-2.204-3.388-4.407-5.082-6.61
			c-3.113,7.203-4.248,16.697-10.755,21.755c-4.023,3.127,1.328,10.059,5.453,7.068c1.825-1.323,3.716-2.473,5.73-3.483
			c0.954-0.479,1.976-0.754,3.002-1.022c1.048-0.273-0.117-1.845-0.045-0.047c0.207,5.183,7.188,5.99,8.839,1.196
			c0.345-1,0.665-1.989,0.928-3.013c0.777-3.024-0.401,0.991-2.399,1.425c1.943-0.422,3.71-1.169,5.535-1.957
			c-2.204-1.694-4.407-3.388-6.611-5.082c-0.495,1.458-1.08,4.398-2.317,5.146c-2.04,1.232-5.09,1.684-7.337,2.612
			c1.459,2.507,2.919,5.014,4.378,7.521c2.553-2.386,5.441-4.168,8.422-5.963c-2.204-1.694-4.407-3.388-6.611-5.082
			c-2.153,5.438-4.167,10.889-6.746,16.145c-1.538,3.134,1.057,8.215,5.082,6.611c3.338-1.33,6.397-3.246,10.003-3.727
			c-1.446-1.899-2.893-3.797-4.339-5.696c-1.344,4.116-2.116,8.108-2.203,12.446c-0.075,3.752,3.802,5.151,6.771,3.886
			c2.319-0.988,3.072-3.284,3.288-5.585c0.033-0.35-0.049-0.173,0.496-1.042c1.248-1.991,4.505-3.264,6.467-4.29
			c-1.818-2.356-3.636-4.712-5.454-7.068c-2.65,3-4.823,5.936-5.116,10.031c-0.262,3.664,0.805,5.43-0.921,9.13
			c-1.72,3.688,2.092,8.984,6.157,6.157c1.875-1.304,4.004-2.865,4.366-5.304c0.161-1.085,0.177-2.107-0.181-3.152
			c-0.506-1.184-0.609-1.432-0.308-0.744c-0.095,0.646-0.19,1.292-0.286,1.938c0.74-0.642,1.543-1.193,2.409-1.654
			C116.205,104.12,111.689,96.332,106.739,99.395L106.739,99.395z"/>
	</g>
</g>
<g>
	<g>
		<path d="M113.238,98.566c-3.198-21.334-17.653-36.71-27.895-54.852C76.026,27.211,68.427,10.188,49.131,3.724
			c-1.075-0.36-2.672,0.408-2.835,1.61c-1.088,8.012,3.971,15.807,8.01,22.308c5.516,8.879,12.292,17.131,16.812,26.597
			c1.207-0.931,2.414-1.862,3.62-2.793c-6.572-6.26-15.526-10.938-24.782-8.79c-1.593,0.37-1.931,2.088-1.377,3.386
			c3.108,7.295,9.907,10.38,16.128,14.589c7.798,5.275,11.134,16.61,17.017,23.786c1.086-1.086,2.173-2.173,3.26-3.26
			c-3.706-4.388-9.284-6.595-14.949-6.822c-1.282-0.051-2.271,1.088-2.305,2.305c-0.253,9.175,8.254,16.035,14.55,21.442
			c8.239,7.077,19.088,14.377,22.415,25.274c0.645,2.114,3.887,2.288,4.445,0c1.708-7.001,3.417-14.002,5.125-21.003
			c0.705-2.888-3.741-4.113-4.445-1.226c-1.708,7.001-3.417,14.002-5.125,21.003c1.482,0,2.963,0,4.445,0
			c-3.027-9.919-11.396-16.966-19.029-23.442c-6.231-5.287-18.027-12.738-17.771-22.049c-0.769,0.769-1.537,1.537-2.305,2.305
			c4.519,0.181,8.752,1.994,11.689,5.472c1.929,2.285,5.121-0.989,3.26-3.26c-5.8-7.075-9.047-15.851-15.368-22.54
			c-5.502-5.823-13.624-6.847-17.057-14.902c-0.459,1.129-0.918,2.258-1.377,3.386c7.567-1.757,14.988,2.548,20.296,7.604
			c1.971,1.877,4.727-0.476,3.62-2.793c-3.738-7.83-9.092-14.854-13.877-22.057C57.173,23.764,49.673,14.422,50.741,6.56
			c-0.945,0.537-1.89,1.073-2.835,1.61c18.941,6.345,25.737,24.645,34.984,40.536c9.808,16.857,22.907,31.1,25.903,51.086
			C109.232,102.724,113.674,101.474,113.238,98.566L113.238,98.566z"/>
	</g>
</g>
<g>
	<g>
		<path d="M72.801,106.947c-6.526,5.965-9.102,15.733-10.866,24.063c-1.936,9.138-2.448,18.332-0.789,27.529
			c2.237,12.394,8.186,23.506,15.167,33.83c3.475,5.139,7.18,10.001,10.139,15.472c2.821,5.216,5.134,10.692,7.805,15.983
			c4.683,9.275,10.959,16.699,20.698,20.765c8.983,3.75,19.606,4.294,29.112,2.751c10.788-1.75,17.221-7.763,21.608-17.5
			c2.536-5.63,4.179-11.638,6.283-17.433c2.199-6.053,5.292-11.799,8.028-17.622c11.219-23.876,24.943-55.76,1.893-77.191
			c-13.05-12.133-32.77-17.702-49.969-20.13c-19.265-2.72-39.506-0.985-57.611,6.331c-2.225,0.899-1.254,4.55,1.003,3.638
			c25.445-10.281,54.809-9.453,80.441-0.252c11.442,4.107,23.168,10.276,29.989,20.701c5.374,8.213,5.893,18.315,4.369,27.741
			c-3.586,22.173-16.944,41.135-23.988,62.136c-2.163,6.448-4.238,13.556-8.626,18.898c-3.498,4.259-9.225,6.044-14.424,7.046
			c-10.748,2.07-23.527,0.173-32.781-5.753c-10.065-6.444-14.217-19.33-19.277-29.504c-5.901-11.865-14.917-21.753-20.676-33.742
			c-5.21-10.848-7.254-22.547-6.053-34.462c1.009-10.004,3.402-23.507,11.191-30.628C77.268,107.969,74.593,105.309,72.801,106.947
			L72.801,106.947z"/>
	</g>
</g>
<g>
	<g>
		<g>
			<path d="M121.773,159.099c0.306-2.457-0.675-5.062-1.49-7.33c-1.218-3.388-2.804-6.666-4.529-9.821
				c-1.493-2.732-5.663-0.296-4.169,2.438c1.386,2.535,2.643,5.131,3.717,7.814c0.835,2.086,1.929,4.604,1.643,6.899
				C116.561,162.184,121.394,162.147,121.773,159.099L121.773,159.099z"/>
		</g>
	</g>
	<g>
		<g>
			<path d="M118.791,155.117c-5.851-6.615-14.54-7.57-22.834-6.311c-3.07,0.467-1.761,5.119,1.283,4.656
				c6.633-1.008,13.484-0.192,18.137,5.068C117.444,160.868,120.846,157.44,118.791,155.117L118.791,155.117z"/>
		</g>
	</g>
	<g>
		<g>
			<path d="M110.745,157.202c2.62,1.674,4.971,3.34,7.973,4.226c3.001,0.886,4.231-3.71,1.283-4.656
				c-10.399-3.337-20.676,1.458-30.303,5.121c-2.88,1.096-1.632,5.766,1.283,4.656c8.705-3.313,18.305-8.147,27.737-5.121
				c0.428-1.552,0.855-3.104,1.283-4.656c-2.592-0.765-4.579-2.308-6.82-3.739C110.549,151.35,108.13,155.531,110.745,157.202
				L110.745,157.202z"/>
		</g>
	</g>
</g>
<g>
	<g>
		<g>
			<path d="M151.324,158.318c-0.254-2.048,0.64-4.155,1.319-6.046c1.078-2.997,2.516-5.877,4.041-8.668
				c1.492-2.733-2.677-5.17-4.17-2.438c-1.586,2.904-2.973,5.896-4.202,8.969c-0.987,2.468-2.153,5.469-1.816,8.183
				C146.874,161.366,151.707,161.403,151.324,158.318L151.324,158.318z"/>
		</g>
	</g>
	<g>
		<g>
			<path d="M152.892,157.75c4.652-5.26,11.505-6.076,18.138-5.068c3.045,0.463,4.354-4.189,1.283-4.656
				c-8.294-1.261-16.984-0.304-22.835,6.311C147.423,156.659,150.826,160.086,152.892,157.75L152.892,157.75z"/>
		</g>
	</g>
	<g>
		<g>
			<path d="M155.087,152.25c-2.24,1.433-4.227,2.975-6.819,3.739c0.428,1.552,0.855,3.104,1.283,4.656
				c9.433-3.026,19.032,1.809,27.738,5.121c2.915,1.109,4.164-3.561,1.283-4.656c-9.628-3.663-19.904-8.458-30.305-5.121
				c-2.948,0.946-1.719,5.541,1.283,4.656c3.003-0.886,5.354-2.552,7.974-4.226C160.139,154.749,157.719,150.569,155.087,152.25
				L155.087,152.25z"/>
		</g>
	</g>
</g>
<g>
	<g>
		<path d="M67.468,119.613c-5.304-4.11-12.859-4.162-19.271-4.136c-7.375,0.029-14.803,0.897-22.065,2.151
			c-1.045,0.181-1.529,1.396-1.317,2.32c4.038,17.652,17.883,31.008,36.319,31.884c2.433,0.116,2.421-3.657,0-3.771
			c-16.809-0.799-29.029-13.152-32.681-29.116c-0.439,0.773-0.878,1.547-1.317,2.32c6.135-1.06,12.336-1.702,18.557-1.958
			c5.786-0.238,14.234-0.805,19.108,2.973C66.698,123.751,69.389,121.102,67.468,119.613L67.468,119.613z"/>
	</g>
</g>
<g>
	<g>
		<path d="M188.968,126.281c4.913-3.808,13.286-3.146,19.107-2.973c6.211,0.184,12.438,0.901,18.558,1.958
			c-0.439-0.773-0.879-1.547-1.317-2.32c-3.652,15.963-15.873,28.317-32.682,29.116c-2.422,0.114-2.433,3.888,0,3.771
			c18.437-0.876,32.28-14.232,36.318-31.884c0.212-0.924-0.272-2.14-1.317-2.32c-7.285-1.258-14.672-2.024-22.064-2.151
			c-6.371-0.11-14.012,0.062-19.271,4.136C184.379,125.102,187.071,127.751,188.968,126.281L188.968,126.281z"/>
	</g>
</g>
<g>
	<g>
		<path fill="#40567C" d="M134.134,193.947c-7.842-0.838-18.249,11.159-19.393,18.202c-0.344,2.123,1.308,4.43,3.69,3.69
			c5.897-1.829,10.979-5.117,16.216-8.302c-1.504-0.864-3.009-1.728-4.514-2.591c-0.282,3.858-2.227,7.192-4.09,10.486
			c-1.678,2.965,2.278,6.066,4.711,3.635c4.855-4.85,9.726-9.623,15.393-13.53c-1.211-1.571-2.423-3.142-3.635-4.712
			c-5.399,6.374-12.747,10.678-13.879,19.621c-0.322,2.545,2.72,3.349,4.514,2.591c5.849-2.472,9.877-7.646,15.5-10.5
			c-1.368-1.368-2.736-2.736-4.104-4.104c-2.212,3.202-7.526,8.755-5.5,13.027c3.079,6.488,9.909,2.707,13.712-0.893
			c2.815-2.664-1.435-6.9-4.242-4.242c-0.889,0.841-1.792,1.564-2.823,2.222c-2.022,1.29-0.95,0.633-0.142-0.851
			c1.196-2.195,2.759-4.184,4.177-6.236c1.833-2.653-1.629-5.361-4.104-4.104c-5.626,2.855-9.665,8.035-15.5,10.5
			c1.504,0.864,3.009,1.728,4.514,2.591c0.833-6.584,8.15-10.69,12.121-15.379c2.069-2.442-0.652-6.768-3.635-4.712
			c-6.094,4.201-11.385,9.252-16.607,14.47c1.57,1.212,3.141,2.424,4.712,3.635c2.434-4.301,4.544-8.52,4.909-13.514
			c0.168-2.29-2.667-3.714-4.514-2.591c-4.777,2.905-9.399,6.027-14.783,7.698c1.23,1.229,2.46,2.46,3.69,3.69
			c0.738-4.549,8.406-14.354,13.606-13.798C137.98,200.358,137.94,194.354,134.134,193.947L134.134,193.947z"/>
	</g>
</g>
<g>
	<g>
		<path d="M148.899,208.042c-2.622-9.387-11.519-13.397-20.655-10.964c-8.242,2.195-14.147,10.406-10.556,18.777
			c4.582,10.68,15.938,15.051,26.048,9.083c8.256-4.874,11.136-15.488,2.341-21.274c-2.09-1.374-4.024,1.976-1.951,3.34
			c7.337,4.826,2.024,12.342-3.882,15.456c-8.185,4.314-17.133-1.372-19.539-9.687c-1.803-6.231,3.971-10.742,9.292-12.159
			c6.846-1.824,13.269,1.639,15.174,8.455C145.84,211.468,149.572,210.449,148.899,208.042L148.899,208.042z"/>
	</g>
</g>
<g>
	<g>
		<g>
			<path d="M139.89,167.621c2.278,2.031,3.711,4.682,5.445,7.15c0.773,1.101,2.599,0.051,1.816-1.063
				c-1.835-2.611-3.364-5.427-5.773-7.576C140.37,165.233,138.876,166.715,139.89,167.621L139.89,167.621z"/>
		</g>
	</g>
	<g>
		<g>
			<path d="M146.55,170.193c2.352,2.519,5.099,4.649,7.363,7.245c0.894,1.023,2.376-0.471,1.488-1.488
				c-2.266-2.595-5.013-4.726-7.363-7.245C147.111,167.711,145.626,169.203,146.55,170.193L146.55,170.193z"/>
		</g>
	</g>
	<g>
		<g>
			<path d="M153.777,173.044c2.874,1.862,5.187,4.446,8.063,6.311c1.143,0.74,2.195-1.082,1.063-1.816
				c-2.874-1.862-5.187-4.446-8.063-6.311C153.697,170.488,152.644,172.31,153.777,173.044L153.777,173.044z"/>
		</g>
	</g>
</g>
<g>
	<g>
		<g>
			<path d="M124.629,167.132c-2.411,2.148-3.94,4.965-5.776,7.576c-0.782,1.113,1.043,2.163,1.816,1.063
				c1.735-2.469,3.167-5.119,5.447-7.15C127.131,167.716,125.639,166.234,124.629,167.132L124.629,167.132z"/>
		</g>
	</g>
	<g>
		<g>
			<path d="M117.967,169.705c-2.351,2.52-5.097,4.65-7.361,7.245c-0.888,1.018,0.594,2.512,1.487,1.488
				c2.265-2.596,5.01-4.727,7.361-7.245C120.379,170.203,118.895,168.711,117.967,169.705L117.967,169.705z"/>
		</g>
	</g>
	<g>
		<g>
			<path d="M111.168,172.228c-2.877,1.864-5.19,4.447-8.064,6.311c-1.134,0.734-0.081,2.557,1.062,1.816
				c2.877-1.864,5.19-4.447,8.064-6.311C113.364,173.31,112.311,171.488,111.168,172.228L111.168,172.228z"/>
		</g>
	</g>
</g>
</svg>
