<?xml version="1.0" encoding="utf-8"?>
<!-- Generator: Adobe Illustrator 16.0.0, SVG Export Plug-In . SVG Version: 6.00 Build 0)  -->
<!DOCTYPE svg PUBLIC "-//W3C//DTD SVG 1.1//EN" "http://www.w3.org/Graphics/SVG/1.1/DTD/svg11.dtd">
<svg version="1.1" xmlns="http://www.w3.org/2000/svg" xmlns:xlink="http://www.w3.org/1999/xlink" x="0px" y="0px"
	 width="272.523px" height="117.143px" viewBox="0 0 272.523 117.143" enable-background="new 0 0 272.523 117.143"
	 xml:space="preserve">
<g id="Calque_3">
</g>
<g id="Calque_1">
	<g>
		<path fill-rule="evenodd" clip-rule="evenodd" d="M6.557,18.889c0.932-0.304,2.071-1.118,2.766-0.836
			c12.068,4.904,24.701,1.644,37.009,2.788c3.081,0.286,6.034,1.961,9.669,3.212c1.816-1.332,4.614-4.292,8.048-5.688
			c5.073-2.061,10.549,0.844,12.456,6.068c3.66,10.025,7.761,19.907,7.275,31.021c-0.174,3.977,1.448,8.033,2.766,12.026
			c0-10.464-0.044-20.928,0.035-31.391c0.017-2.292,0.746-4.589,0.669-6.869c-0.137-4.068,0.828-6.56,5.617-6.797
			c6.618-0.329,11.813,1.49,13.564,5.312c0.928,2.026,2.623,3.779,3.205,5.868c1.261,4.527,3.338,9.411,2.61,13.733
			c-0.656,3.896-4.604,7.237-7.101,10.823c-0.51-0.177-1.021-0.353-1.532-0.529c1.334,1.62,2.744,3.185,3.987,4.87
			c4.054,5.502,8.213,10.937,11.995,16.62c1.908,2.87,2.053,6.42-1.405,8.236c-3.107,1.632-5.864,0.495-7.962-2.788
			c-3.395-5.317-7.262-10.331-10.93-15.472c-0.66,0.273-1.319,0.547-1.979,0.821c0.572,2.671,1.264,5.323,1.681,8.018
			c0.389,2.513,1.062,5.209,0.499,7.558c-0.344,1.433-2.82,3.333-4.275,3.28c-1.898-0.069-4.197-1.483-5.466-3.024
			c-1.25-1.517-1.429-3.917-3.022-5.802c0,7.181-0.093,14.363,0.036,21.543c0.073,4.099-1.66,6.362-5.778,6.355
			c-4.147-0.008-4.687-3.163-4.743-6.267c-0.137-7.492-0.087-14.987-0.11-22.481c-0.005-1.796-0.001-3.592-0.001-5.674
			c-1.822-0.185-3.087-0.322-4.354-0.439c-4.411-0.411-6.696,0.834-6.355,6.028c0.479,7.298,0.129,14.649,0.124,21.978
			c-0.002,3.73-0.734,7.335-5.134,7.778c-4.145,0.418-5.798-2.593-6.141-6.289c-0.641-6.899-1.222-13.805-1.741-20.714
			c-0.605-8.063-1.117-16.132-1.66-24.063c-9.064-0.573-17.367-1.099-25.844-1.635c-0.826,11.224-1.636,21.408-2.3,31.604
			c-0.326,4.999-1.812,6.911-6.133,6.164c-1.549-0.268-3.86-2.275-3.972-3.642c-0.449-5.441-0.384-10.956-0.114-16.423
			c0.696-14.054,1.603-28.098,2.432-42.253c-3.154-0.988-5.773-1.81-8.392-2.63C6.557,25.555,6.557,22.221,6.557,18.889z
			 M79.447,69.209c0,9.832-0.104,19.092,0.081,28.346c0.042,2.075,1.099,4.129,1.689,6.193c0.765-2.067,2.1-4.105,2.204-6.205
			c0.722-14.462-1.095-28.718-2.855-43.074c-1.231-10.035-4.015-19.348-7.328-28.647c-1.51-4.236-7.025-6.017-10.318-3.118
			c-4.765,4.194-9.942,8.382-9.391,16.063c0.854,11.904,1.234,23.84,1.909,35.759c0.47,8.301,0.958,16.607,1.759,24.881
			c0.177,1.823,1.709,3.516,2.617,5.27c0.675-1.793,1.89-3.572,1.934-5.38c0.199-8.15,0.156-16.311,0.008-24.464
			c-0.055-3.066,0.958-4.643,4.153-4.764C69.877,69.92,73.838,69.576,79.447,69.209z M96.124,54.462
			c12.39-1.656,15.596-5.644,12.366-15.124c-1.435-4.21-3.991-8.417-7.131-11.52c-1.8-1.78-5.806-1.748-8.784-1.636
			c-0.78,0.029-2.019,3.394-2.051,5.245c-0.225,12.97-0.344,25.947-0.143,38.917c0.06,3.874,1.055,7.778,2.021,11.568
			c0.344,1.352,1.868,2.402,2.854,3.59c0.302-1.773,1.403-3.927,0.772-5.259c-3.257-6.873-0.948-13.823-1.657-21.715
			c3.472,4.062,6.118,7.166,8.773,10.261c1.487,1.73,3.141,3.342,4.455,5.195c2,2.82,3.67,5.876,5.706,8.668
			c0.531,0.728,1.897,0.847,2.88,1.245c0.196-0.998,0.896-2.302,0.507-2.946c-2.812-4.654-5.562-9.396-8.886-13.68
			C104.503,63.015,100.553,59.262,96.124,54.462z M18.746,90.658c0.972-12.087,1.944-24.172,2.973-36.959c8.623,0,17.263,0,25.984,0
			c-1.325-4.398-10.956-5.907-25.454-4.326c0-7.008,0-14.004,0-21.329c8.731,0,16.862,0.064,24.99-0.077
			c1.078-0.019,2.138-1.081,3.207-1.661c-1.074-0.769-2.062-1.977-3.241-2.206c-1.924-0.372-3.978-0.015-5.968-0.124
			c-10.238-0.563-20.472-1.21-30.712-1.72c-0.942-0.047-1.922,0.663-2.885,1.021c0.694,0.969,1.198,2.486,2.117,2.804
			c3.049,1.056,6.247,1.679,9.377,2.464C16.603,38.56,15.192,87.991,18.746,90.658z M50.406,47.092c0-4.896,0-10.337,0-15.496
			c-8.102,0-16.184,0-24.544,0c0,4.807,0,9.192,0,13.533C34.157,45.793,42.16,46.432,50.406,47.092z"/>
		<path fill-rule="evenodd" clip-rule="evenodd" d="M227.712,51.932c10.023,5.013,14.052,14.66,10.631,24.144
			c-1.851,5.13-14.71,14.139-20.187,14.26c-3.69,0.082-7.474,0.971-11.035,0.394c-3.598-0.583-7.139-2.219-10.402-3.959
			c-3.861-2.057-7.4-4.721-11.078-7.121c0.029,0.616,0.06,1.232,0.089,1.848c-2.629,1.5-5.259,2.998-7.888,4.498
			c-0.556,0.317-1.126,0.616-1.654,0.975c-2.914,1.976-5.607,5.146-8.768,5.71c-6.704,1.193-13.457,0.273-19.745-3.084
			c-9.398-5.018-13.672-12.182-13.605-23.286c0.062-10.268,1.316-19.876,6.735-28.453c3.431-5.429,7.927-10.329,15.342-10.48
			c6.431-0.132,12.861-0.332,19.288-0.586c3.948-0.155,5.041,2.441,5.649,6.078c4.486,0,8.962-0.194,13.407,0.088
			c2.016,0.127,4.18,0.857,5.91,1.915c3.045,1.859,4.683,5.695,9.101,5.9c0.801,0.038,2.059,3.583,2.047,5.503
			c-0.06,9.126-0.492,18.249-0.771,27.375c-0.051,1.652-0.008,3.308-0.008,6.011c3.785-0.717,7.947-0.354,10.378-2.232
			c3.78-2.919,8.61-6.383,5.601-13.127c-1.073-0.208-2.695-0.137-3.872-0.827c-2.805-1.646-7.086-1.566-7.476-6.247
			c-0.396-4.763-0.519-9.067,4.225-12.332c4.269-2.938,8.123-6.228,13.725-6.087c3.489,0.088,5.242,1.682,5.331,5.131
			c0.08,3.135-0.735,5.494-4.436,6.012C232.199,50.239,230.24,51.141,227.712,51.932z M169.208,38.052c-3.615,0-5.76-0.002-7.904,0
			c-7.054,0.004-9.288,1.53-11.927,8.03c-0.561,1.383-1.212,2.742-1.959,4.033c-4.338,7.503-2.205,15.467-1.58,23.289
			c0.092,1.146,1.233,2.36,2.164,3.259c6.595,6.362,14.798,6.909,21.206,2.33C169.208,65.069,169.208,51.895,169.208,38.052z
			 M180.774,72.222c7.198,4.871,13.284,9.032,19.433,13.101c0.938,0.622,2.147,0.864,3.259,1.195
			c5.07,1.511,5.342,1.196,4.329-4.139c-0.308-1.618-0.304-3.317-0.261-4.975c0.255-9.808,0.642-19.614,0.766-29.424
			c0.018-1.367-1.166-2.75-1.793-4.125c-0.722,1.241-2.014,2.454-2.074,3.726c-0.465,9.789-0.687,19.589-0.996,29.386
			c-0.049,1.554-0.159,3.105-0.304,5.843c-6.279-7.899-17.021-8.035-21.444-16.925c5.424-0.398,10.61-0.407,15.626-1.335
			c1.945-0.36,4.866-2.695,4.992-4.312c0.434-5.594,0.171-11.309-0.481-16.9c-0.523-4.49-3.419-6.977-8.298-6.832
			c-5.127,0.153-10.262,0.034-15.528,0.034c-0.256-1.796-0.226-3.171-0.699-4.342c-0.296-0.73-1.291-1.412-2.094-1.599
			c-0.378-0.089-1.378,0.963-1.518,1.621c-0.752,3.536-1.752,7.096-1.869,10.673c-0.272,8.318-0.482,16.679,0.075,24.968
			c0.279,4.162,2.118,8.275,3.643,12.261c0.381,0.995,2.276,1.41,3.477,2.093c0.587-1.102,1.51-2.151,1.685-3.313
			C180.981,77.018,180.774,75.061,180.774,72.222z M171.21,34.193c-0.049-0.642-0.099-1.282-0.147-1.923
			c-8.489-5.173-23.373-0.858-27.424,7.94c-1.042,2.262-2.094,4.519-3.189,6.755c-4.741,9.675-3.306,19.67-1.364,29.625
			c0.322,1.651,1.574,3.349,2.847,4.55c7.036,6.646,15.382,9.763,25.061,8.15c1.917-0.319,3.782-1.855,5.306-3.234
			c0.72-0.651,0.575-2.256,0.822-3.429c-1.153,0.188-2.392,0.174-3.438,0.614c-1.174,0.495-2.082,1.765-3.268,2.069
			c-12.285,3.176-24.71-6.415-24.716-18.976c-0.002-2.994-0.077-5.989,0.014-8.98c0.221-7.324,4.229-13.075,8.18-18.751
			c2.825-4.059,7.266-3.978,11.694-3.869C164.788,34.814,168.002,34.391,171.21,34.193z M235.336,44.69
			c0.033-0.443,0.067-0.887,0.101-1.331c-1.658-0.232-3.54-1.076-4.926-0.567c-2.747,1.008-5.232,2.742-7.804,4.212
			c-3.406,1.947-5.56,5.139-3.929,8.644c0.998,2.144,4.221,3.828,6.772,4.534c3.705,1.026,4.678,3.001,5.432,6.563
			c1.265,5.979-3.183,8.484-5.882,12.179c-2.131,2.916-4.665,4.436-8.448,4.084c-1.358-0.126-2.836,1.025-4.259,1.594
			c1.425,0.794,2.808,2.18,4.283,2.287c9.738,0.71,18.836-9.894,18.226-20.991c-0.302-5.485-2.93-8.369-8.301-9.563
			c-1.429-0.317-2.685-1.412-4.02-2.149c0.838-1.319,1.379-3.097,2.571-3.87C228.401,48.214,231.923,46.537,235.336,44.69z
			 M190.367,69.238c-0.08,0.366-0.161,0.733-0.242,1.102c3.165,1.273,6.331,2.547,10.093,4.061
			c-0.126-2.705-0.207-4.452-0.299-6.425C196.426,68.437,193.397,68.837,190.367,69.238z"/>
		<path fill-rule="evenodd" clip-rule="evenodd" d="M250.935,70.379c0,1.303,0,2.584,0,4.322c4.918,0,9.72-0.106,14.514,0.037
			c3.347,0.1,6.886,0.209,7.091,4.979c0.204,4.732-3.083,5.441-6.577,5.519c-6.149,0.136-12.304,0.022-18.455-0.024
			c-4.452-0.034-6.745-2.626-7.09-6.762c-0.316-3.791-0.474-7.676-0.014-11.436c0.775-6.339,1.983-12.634,3.218-18.907
			c1.065-5.415,5.415-8.288,13.047-9.271c2.196-0.282,4.368-0.971,6.472-1.702c3.724-1.293,7.456,0.01,8.312,3.071
			c1.149,4.109-1.583,8.916-5.592,9.606c-1.457,0.251-2.986,0.099-4.482,0.104c-7.586,0.03-7.975,0.458-7.511,8.83
			c3.411,1.045,7.27,1.636,10.459,3.422c1.926,1.079,3.836,4.021,3.825,6.115c-0.009,1.552-3.116,4.369-4.85,4.374
			C259.352,72.667,255.401,71.295,250.935,70.379z M267.436,41.068c-4.481,0.652-7.977,1.179-11.476,1.667
			c-7.143,0.997-8.435,2.246-9.343,9.268c-0.468,3.613-0.797,7.245-1.282,10.854c-0.588,4.371-1.489,8.711-1.854,13.098
			c-0.337,4.031,1.685,6.185,5.962,6.08c4.82-0.117,9.653,0.131,14.463-0.119c1.504-0.078,2.95-1.256,4.422-1.931
			c-1.487-0.679-2.951-1.873-4.468-1.943c-5.257-0.242-10.532-0.094-16.054-0.094c-0.141-2.078-0.307-3.529-0.325-4.982
			c-0.088-7.211,2.109-8.482,8.589-5.149c1.598,0.821,3.369,1.584,5.115,1.729c1.002,0.084,2.111-1.127,3.173-1.755
			c-0.759-0.938-1.34-2.384-2.308-2.723c-3.854-1.35-7.829-2.354-11.729-3.479c-1.666-12.6-0.018-14.692,11.954-15.258
			c0.829-0.039,1.687,0.045,2.482-0.14C268.252,45.378,268.865,43.44,267.436,41.068z"/>
		<path fill-rule="evenodd" clip-rule="evenodd" d="M207.5,13.824c-0.842,4.935-3.456,5.92-6.439,6.014
			c-3.685,0.115-4.741-2.406-4.69-5.6c0.052-3.258,1.486-6.007,4.947-5.148C203.628,9.663,205.456,12.178,207.5,13.824z"/>
		<path fill-rule="evenodd" clip-rule="evenodd" fill="#FFFFFF" d="M79.447,69.209c-5.609,0.367-9.57,0.711-13.539,0.86
			c-3.196,0.121-4.208,1.697-4.153,4.764c0.148,8.153,0.191,16.313-0.008,24.464c-0.044,1.808-1.259,3.587-1.934,5.38
			c-0.908-1.754-2.44-3.446-2.617-5.27c-0.801-8.273-1.289-16.58-1.759-24.881c-0.674-11.919-1.054-23.855-1.909-35.759
			c-0.551-7.681,4.626-11.869,9.391-16.063c3.292-2.899,8.808-1.118,10.318,3.118c3.313,9.299,6.097,18.612,7.328,28.647
			c1.76,14.356,3.578,28.612,2.855,43.074c-0.104,2.1-1.439,4.138-2.204,6.205c-0.59-2.064-1.647-4.118-1.689-6.193
			C79.343,88.301,79.447,79.041,79.447,69.209z M76.321,65.281c1.405-9.561-1.787-28.437-6.336-36.511
			c-0.749-1.329-2.827-1.909-4.29-2.834c-0.355,1.467-0.755,2.925-1.046,4.405c-0.158,0.806-0.133,1.648-0.186,2.474
			c-0.604,9.411-1.358,18.817-1.662,28.238c-0.051,1.572,1.699,4.432,2.887,4.584C69.196,66.083,72.839,65.472,76.321,65.281z
			 M58.873,53.508c0.587-6.92,1.174-13.841,1.762-20.761c-0.619-0.046-1.239-0.093-1.858-0.139
			C56.423,39.408,58.189,46.49,58.873,53.508z"/>
		<path fill-rule="evenodd" clip-rule="evenodd" fill="#FFFFFF" d="M96.124,54.462c4.429,4.8,8.379,8.553,11.681,12.809
			c3.324,4.283,6.074,9.025,8.886,13.68c0.389,0.645-0.311,1.948-0.507,2.946c-0.982-0.398-2.349-0.518-2.88-1.245
			c-2.036-2.792-3.706-5.848-5.706-8.668c-1.314-1.854-2.968-3.465-4.455-5.195c-2.656-3.095-5.301-6.199-8.773-10.261
			c0.709,7.892-1.6,14.842,1.657,21.715c0.631,1.332-0.47,3.485-0.772,5.259c-0.985-1.188-2.509-2.238-2.854-3.59
			c-0.966-3.79-1.961-7.694-2.021-11.568c-0.201-12.97-0.083-25.947,0.143-38.917c0.032-1.851,1.271-5.215,2.051-5.245
			c2.979-0.112,6.984-0.145,8.784,1.636c3.14,3.103,5.696,7.31,7.131,11.52C111.719,48.818,108.513,52.805,96.124,54.462z
			 M94.619,49.795c1.764,0,2.921,0.025,4.078-0.004c5.622-0.145,7.849-2.097,6.293-7.26c-1.319-4.377-4.345-8.277-6.896-12.206
			c-0.387-0.597-2.298-0.203-3.475-0.267C94.619,36.844,94.619,43.084,94.619,49.795z"/>
		<path fill-rule="evenodd" clip-rule="evenodd" fill="#FFFFFF" d="M18.746,90.658c-3.554-2.667-2.143-52.098,0.39-62.112
			c-3.13-0.786-6.329-1.409-9.377-2.464c-0.919-0.318-1.423-1.835-2.117-2.804c0.963-0.358,1.943-1.068,2.885-1.021
			c10.24,0.51,20.474,1.156,30.712,1.72c1.99,0.109,4.043-0.248,5.968,0.124c1.179,0.229,2.167,1.437,3.241,2.206
			c-1.069,0.58-2.129,1.643-3.207,1.661c-8.128,0.142-16.259,0.077-24.99,0.077c0,7.325,0,14.321,0,21.329
			c14.498-1.581,24.129-0.072,25.454,4.326c-8.722,0-17.361,0-25.984,0C20.69,66.487,19.718,78.572,18.746,90.658z"/>
		<path fill-rule="evenodd" clip-rule="evenodd" fill="#FFFFFF" d="M180.774,72.222c0,2.839,0.207,4.796-0.076,6.68
			c-0.175,1.162-1.098,2.212-1.685,3.313c-1.2-0.683-3.096-1.098-3.477-2.093c-1.524-3.985-3.363-8.099-3.643-12.261
			c-0.558-8.289-0.348-16.649-0.075-24.968c0.117-3.577,1.117-7.137,1.869-10.673c0.14-0.658,1.14-1.709,1.518-1.621
			c0.803,0.188,1.798,0.869,2.094,1.599c0.474,1.171,0.443,2.546,0.699,4.342c5.267,0,10.401,0.119,15.528-0.034
			c4.879-0.146,7.774,2.342,8.298,6.832c0.652,5.592,0.915,11.306,0.481,16.9c-0.126,1.616-3.047,3.951-4.992,4.312
			c-5.016,0.928-10.202,0.937-15.626,1.335c4.424,8.89,15.165,9.025,21.444,16.925c0.145-2.737,0.255-4.289,0.304-5.843
			c0.31-9.797,0.531-19.598,0.996-29.386c0.061-1.272,1.353-2.485,2.074-3.726c0.627,1.375,1.811,2.758,1.793,4.125
			c-0.124,9.81-0.511,19.616-0.766,29.424c-0.043,1.657-0.047,3.356,0.261,4.975c1.013,5.335,0.741,5.649-4.329,4.139
			c-1.111-0.331-2.32-0.573-3.259-1.195C194.058,81.254,187.972,77.093,180.774,72.222z M177.854,60.871
			c6.117,0,11.899,0.153,17.658-0.143c1.027-0.053,2.706-1.91,2.797-3.037c0.32-3.967,0.473-8.039-0.122-11.949
			c-0.278-1.834-2.265-4.683-3.719-4.84c-5.381-0.58-10.862-0.23-16.614-0.23C177.854,47.65,177.854,54.08,177.854,60.871z"/>
		<path fill-rule="evenodd" clip-rule="evenodd" fill="#FFFFFF" d="M171.21,34.193c-3.208,0.198-6.422,0.621-9.624,0.543
			c-4.429-0.109-8.869-0.19-11.694,3.869c-3.95,5.677-7.959,11.427-8.18,18.751c-0.091,2.991-0.016,5.986-0.014,8.98
			c0.006,12.561,12.431,22.151,24.716,18.976c1.186-0.305,2.094-1.574,3.268-2.069c1.047-0.44,2.285-0.427,3.438-0.614
			c-0.247,1.173-0.103,2.777-0.822,3.429c-1.523,1.379-3.389,2.915-5.306,3.234c-9.679,1.612-18.024-1.504-25.061-8.15
			c-1.272-1.201-2.524-2.898-2.847-4.55c-1.941-9.955-3.376-19.95,1.364-29.625c1.096-2.236,2.147-4.494,3.189-6.755
			c4.051-8.798,18.935-13.113,27.424-7.94C171.112,32.91,171.161,33.551,171.21,34.193z"/>
		<path fill-rule="evenodd" clip-rule="evenodd" fill="#FFFFFF" d="M235.336,44.69c-3.413,1.847-6.936,3.524-10.183,5.627
			c-1.192,0.772-1.733,2.55-2.571,3.87c1.335,0.737,2.591,1.832,4.02,2.149c5.371,1.193,7.999,4.077,8.301,9.563
			c0.61,11.098-8.487,21.701-18.226,20.991c-1.476-0.107-2.858-1.493-4.283-2.287c1.423-0.568,2.9-1.72,4.259-1.594
			c3.783,0.352,6.317-1.168,8.448-4.084c2.699-3.694,7.146-6.2,5.882-12.179c-0.754-3.563-1.727-5.537-5.432-6.563
			c-2.552-0.706-5.774-2.391-6.772-4.534c-1.631-3.505,0.522-6.697,3.929-8.644c2.571-1.471,5.057-3.205,7.804-4.212
			c1.386-0.509,3.268,0.335,4.926,0.567C235.404,43.803,235.369,44.247,235.336,44.69z"/>
		<path fill-rule="evenodd" clip-rule="evenodd" fill="#FFFFFF" d="M267.436,41.068c1.43,2.372,0.816,4.31-2.679,5.124
			c-0.796,0.185-1.653,0.101-2.482,0.14c-11.972,0.566-13.62,2.659-11.954,15.258c3.9,1.124,7.876,2.129,11.729,3.479
			c0.968,0.339,1.549,1.785,2.308,2.723c-1.062,0.628-2.171,1.839-3.173,1.755c-1.746-0.146-3.518-0.908-5.115-1.729
			c-6.479-3.333-8.677-2.062-8.589,5.149c0.019,1.453,0.185,2.904,0.325,4.982c5.521,0,10.797-0.148,16.054,0.094
			c1.517,0.07,2.98,1.265,4.468,1.943c-1.472,0.675-2.918,1.853-4.422,1.931c-4.81,0.25-9.643,0.002-14.463,0.119
			c-4.277,0.104-6.299-2.049-5.962-6.08c0.365-4.387,1.267-8.727,1.854-13.098c0.485-3.609,0.814-7.241,1.282-10.854
			c0.908-7.022,2.2-8.271,9.343-9.268C259.459,42.246,262.954,41.72,267.436,41.068z"/>
		<path fill-rule="evenodd" clip-rule="evenodd" d="M76.321,65.281c-3.481,0.191-7.125,0.803-10.633,0.355
			c-1.188-0.152-2.938-3.012-2.887-4.584c0.304-9.421,1.058-18.827,1.662-28.238c0.053-0.826,0.028-1.668,0.186-2.474
			c0.291-1.479,0.691-2.938,1.046-4.405c1.463,0.926,3.542,1.506,4.29,2.834C74.534,36.844,77.725,55.72,76.321,65.281z
			 M74.018,61.638c-1.778-9.391-3.479-18.372-5.178-27.353c-0.271,0.064-0.543,0.129-0.815,0.193
			c-0.759,9.04-1.518,18.081-2.279,27.159C68.871,61.638,70.975,61.638,74.018,61.638z"/>
		<path fill-rule="evenodd" clip-rule="evenodd" d="M58.873,53.508c-0.684-7.018-2.45-14.1-0.097-20.9
			c0.62,0.046,1.239,0.093,1.858,0.139C60.047,39.667,59.46,46.588,58.873,53.508z"/>
		<path fill-rule="evenodd" clip-rule="evenodd" d="M94.619,49.795c0-6.711,0-12.951,0-19.736c1.177,0.063,3.087-0.33,3.475,0.267
			c2.552,3.928,5.577,7.828,6.896,12.206c1.555,5.163-0.671,7.115-6.293,7.26C97.54,49.821,96.383,49.795,94.619,49.795z
			 M97.901,47.132c1.659-1.145,3.541-1.993,3.45-2.456c-0.44-2.248-1.409-4.392-2.191-6.572c-0.419,0.166-0.839,0.333-1.259,0.499
			C97.901,41.056,97.901,43.51,97.901,47.132z"/>
		<path fill-rule="evenodd" clip-rule="evenodd" d="M177.854,60.871c0-6.792,0-13.221,0-20.199c5.752,0,11.233-0.35,16.614,0.23
			c1.454,0.157,3.44,3.006,3.719,4.84c0.595,3.91,0.442,7.981,0.122,11.949c-0.091,1.127-1.77,2.984-2.797,3.037
			C189.753,61.025,183.971,60.871,177.854,60.871z M194.525,57.635c0-4.751,0-9.076,0-13.31c-4.883,0-9.121,0-13.412,0
			c0,4.611,0,8.856,0,13.31C185.713,57.635,189.999,57.635,194.525,57.635z"/>
	</g>
</g>
<g id="Calque_2">
</g>
</svg>
